<svg width="24" height="24" viewBox="0 0 24 24" fill="none" xmlns="http://www.w3.org/2000/svg">
<g clip-path="url(#clip0_435_137)">
<path d="M2.96014 9.91896C2.9696 10.0046 2.97922 10.0913 2.98895 10.1788L3.13965 11.5357C3.24543 12.4886 3.33717 13.3151 3.49723 13.9746C3.66941 14.684 3.95327 15.3524 4.5452 15.8825C5.13715 16.4125 5.83248 16.621 6.55633 16.7137C7.2292 16.8001 8.06033 16.8 9.01874 16.8H15.4401C16.0971 16.8 16.6771 16.8 17.1613 16.7508C17.6861 16.6975 18.1959 16.5794 18.6861 16.2841C19.1763 15.9888 19.5193 15.5933 19.8119 15.1543C20.0819 14.7492 20.3533 14.2364 20.6606 13.6556L23.6467 8.01281C24.7062 6.01064 23.2554 3.59998 20.9909 3.59998H8.87476C7.69591 3.59992 6.6874 3.59986 5.88912 3.71144C5.4851 3.76793 5.0892 3.85835 4.71787 4.0125L4.54532 2.45894C4.38985 1.05906 3.20711 0 1.79922 0H1.19948C0.537031 0 0 0.537252 0 1.2C0 1.86274 0.537031 2.4 1.19948 2.4H1.79922C1.98472 2.4 2.14054 2.53954 2.16103 2.72398L2.96014 9.91896Z" fill="#0B021D"/>
<path fill-rule="evenodd" clip-rule="evenodd" d="M14.3938 21C14.3938 19.3432 15.7364 18 17.3925 18C19.0486 18 20.3912 19.3432 20.3912 21C20.3912 22.6568 19.0486 24 17.3925 24C15.7364 24 14.3938 22.6568 14.3938 21Z" fill="#0B021D"/>
<path fill-rule="evenodd" clip-rule="evenodd" d="M3.59845 21C3.59845 19.3432 4.94102 18 6.59715 18C8.25328 18 9.59585 19.3432 9.59585 21C9.59585 22.6568 8.25328 24 6.59715 24C4.94102 24 3.59845 22.6568 3.59845 21Z" fill="#0B021D"/>
</g>
<defs>
<clipPath id="clip0_435_137">
<rect width="24" height="24" fill="white"/>
</clipPath>
</defs>
</svg>
