<svg width="24" height="24" viewBox="0 0 24 24" fill="none" xmlns="http://www.w3.org/2000/svg">
<path d="M19.3662 21.4738C22.1861 19.278 24 15.8508 24 12C24 5.37258 18.6274 0 12 0C5.37258 0 0 5.37258 0 12C0 15.8508 1.81387 19.278 4.63384 21.4738C4.99742 18.8228 6.67235 16.6071 8.95928 15.5486C8.16929 14.7658 7.68 13.68 7.68 12.48C7.68 10.0941 9.61412 8.16 12 8.16C14.3859 8.16 16.32 10.0941 16.32 12.48C16.32 13.68 15.8307 14.7658 15.0407 15.5486C17.3277 16.6071 19.0026 18.8228 19.3662 21.4738Z" fill="#0B021D"/>
<path d="M4.63384 21.4738C4.99742 18.8228 6.67235 16.6071 8.95928 15.5486C8.16929 14.7658 7.68 13.68 7.68 12.48C7.68 10.0941 9.61412 8.16 12 8.16C14.3859 8.16 16.32 10.0941 16.32 12.48C16.32 13.68 15.8307 14.7658 15.0407 15.5486C17.3277 16.6071 19.0026 18.8228 19.3662 21.4738C17.3329 23.057 14.7766 24 12 24C9.22342 24 6.6671 23.057 4.63384 21.4738Z" fill="white" fill-opacity="0.65"/>
</svg>
